<?xml version="1.0" encoding="UTF-8" standalone="no"?>
<!DOCTYPE svg PUBLIC "-//W3C//DTD SVG 1.1//EN" "http://www.w3.org/Graphics/SVG/1.1/DTD/svg11.dtd">
<svg width="100%" height="100%" viewBox="0 0 1920 1080" version="1.1" xmlns="http://www.w3.org/2000/svg" xmlns:xlink="http://www.w3.org/1999/xlink" xml:space="preserve" xmlns:serif="http://www.serif.com/" style="fill-rule:evenodd;clip-rule:evenodd;stroke-linecap:round;stroke-linejoin:round;stroke-miterlimit:1.5;">
    <g transform="matrix(0.0826984,0.692374,-0.692374,0.0826984,246.356,-206.13)">
        <path d="M476.066,213.934C447.936,185.804 409.782,170 370,170C287.213,170 220,237.213 220,320C220,387.891 265.6,447.317 331.177,464.889L345.153,412.729C303.184,401.483 274,363.45 274,320C274,267.016 317.016,224 370,224C395.461,224 419.879,234.114 437.882,252.118L476.066,213.934Z" style="fill:rgb(72,73,81);"/>
    </g>
    <g transform="matrix(-0.10016,0.716389,-0.716389,-0.10016,2086.21,855.497)">
        <path d="M476.066,213.934C447.936,185.804 409.782,170 370,170C287.213,170 220,237.213 220,320C220,387.891 265.6,447.317 331.177,464.889L345.153,412.729C303.184,401.483 274,363.45 274,320C274,267.016 317.016,224 370,224C395.461,224 419.879,234.114 437.882,252.118L476.066,213.934Z" style="fill:rgb(72,73,81);"/>
    </g>
    <g transform="matrix(0.352084,0.0750787,-0.0750787,0.352084,1580.44,442.951)">
        <path d="M1012.61,351.247C1000.93,349.584 989.07,349.584 977.387,351.247L977.322,457.322L871.247,457.387C869.584,469.07 869.584,480.93 871.247,492.613L977.322,492.678L977.387,598.753C989.07,600.416 1000.93,600.416 1012.61,598.753L1012.68,492.678L1118.75,492.613C1120.42,480.93 1120.42,469.07 1118.75,457.387L1012.68,457.322L1012.61,351.247Z" style="fill:rgb(72,73,81);"/>
    </g>
    <g transform="matrix(0.109239,0.199679,-0.191183,0.104591,14.5664,-49.8779)">
        <path d="M1012.61,351.247C1000.93,349.584 989.07,349.584 977.387,351.247L977.322,457.322L871.247,457.387C869.584,469.07 869.584,480.93 871.247,492.613L977.322,492.678L977.387,598.753C989.07,600.416 1000.93,600.416 1012.61,598.753L1012.68,492.678L1118.75,492.613C1120.42,480.93 1120.42,469.07 1118.75,457.387L1012.68,457.322L1012.61,351.247Z" style="fill:rgb(72,73,81);"/>
    </g>
    <g transform="matrix(0.519754,0.525519,-0.525519,0.519754,1618.26,-393.795)">
        <path d="M535,640L650,870L420,870L535,640Z" style="fill:rgb(72,73,81);"/>
    </g>
    <g transform="matrix(0.169713,-0.295518,0.295518,0.169713,1492.59,469.486)">
        <path d="M535,640L650,870L420,870L535,640Z" style="fill:rgb(72,73,81);"/>
    </g>
    <g transform="matrix(0.535714,0,0,0.535714,-827.857,403.571)">
        <circle cx="1480" cy="320" r="140" style="fill:rgb(72,73,81);"/>
    </g>
    <g transform="matrix(0.214286,0,0,0.214286,992.857,1001.43)">
        <circle cx="1480" cy="320" r="140" style="fill:rgb(72,73,81);"/>
    </g>
    <g transform="matrix(1.89427,-0.593713,0.593713,1.89427,-2163.89,923.043)">
        <path d="M1230,310L1260,355L1230,400L1200,355L1230,310Z" style="fill:rgb(72,73,81);"/>
    </g>
    <g transform="matrix(0.70176,-0.0879144,0.0879144,0.70176,1092.59,755.561)">
        <path d="M780,100C780,66.885 753.115,40 720,40L600,40C566.885,40 540,66.885 540,100L540,220C540,253.115 566.885,280 600,280L720,280C753.115,280 780,253.115 780,220L780,100Z" style="fill:rgb(72,73,81);"/>
    </g>
    <g transform="matrix(0.221736,0.755888,-0.755888,0.221736,18.6656,487.104)">
        <path d="M780,100C780,66.885 753.115,40 720,40L600,40C566.885,40 540,66.885 540,100L540,220C540,253.115 566.885,280 600,280L720,280C753.115,280 780,253.115 780,220L780,100Z" style="fill:rgb(72,73,81);"/>
    </g>
    <g transform="matrix(-0.194892,0.570304,-0.570304,-0.194892,2101.96,-127.298)">
        <path d="M780,100C780,66.885 753.115,40 720,40L600,40C566.885,40 540,66.885 540,100L540,220C540,253.115 566.885,280 600,280L720,280C753.115,280 780,253.115 780,220L780,100Z" style="fill:rgb(72,73,81);"/>
    </g>
    <g transform="matrix(0.695958,0.235753,-0.235753,0.695958,307.731,-52.8835)">
        <path d="M305,150C325.489,150 428.989,209.756 439.234,227.5C449.479,245.244 449.479,364.756 439.234,382.5C428.989,400.244 325.489,460 305,460C284.511,460 181.011,400.244 170.766,382.5C160.521,364.756 160.521,245.244 170.766,227.5C181.011,209.756 284.511,150 305,150Z" style="fill:rgb(72,73,81);stroke:rgb(72,73,81);stroke-width:22.68px;"/>
    </g>
    <path d="M-10,390C-10,390 271.732,449.673 440,530C566.454,590.366 801.903,664.042 930,680C1022.3,691.499 1338.39,646.969 1430,610" style="fill:none;stroke:rgb(72,73,81);stroke-width:22.22px;stroke-dasharray:444.44,66.67,0,0;"/>
</svg>
